<svg width="175" height="29" viewBox="0 0 175 29" fill="none" xmlns="http://www.w3.org/2000/svg">
<circle cx="12" cy="14.5" r="12" fill="#354F52"/>
<circle cx="24" cy="14.5" r="12" fill="#52796F"/>
<circle cx="36" cy="14.5" r="12" fill="#84A98C"/>
<path d="M66.288 21.972C66.936 21.972 67.488 21.896 67.944 21.744C68.408 21.592 68.784 21.384 69.072 21.12C69.368 20.856 69.584 20.544 69.72 20.184C69.856 19.816 69.924 19.416 69.924 18.984C69.924 18.128 69.628 17.456 69.036 16.968C68.444 16.472 67.528 16.224 66.288 16.224H62.688V21.972H66.288ZM62.688 8.772V14.412H65.628C66.884 14.412 67.816 14.16 68.424 13.656C69.04 13.144 69.348 12.456 69.348 11.592C69.348 10.608 69.056 9.892 68.472 9.444C67.888 8.996 66.98 8.772 65.748 8.772H62.688ZM65.748 6.768C66.828 6.768 67.752 6.872 68.52 7.08C69.296 7.288 69.932 7.588 70.428 7.98C70.924 8.372 71.288 8.848 71.52 9.408C71.76 9.96 71.88 10.588 71.88 11.292C71.88 11.708 71.816 12.108 71.688 12.492C71.56 12.876 71.364 13.236 71.1 13.572C70.836 13.9 70.504 14.196 70.104 14.46C69.704 14.724 69.232 14.944 68.688 15.12C71.192 15.616 72.444 16.924 72.444 19.044C72.444 19.78 72.308 20.452 72.036 21.06C71.764 21.66 71.368 22.18 70.848 22.62C70.328 23.06 69.688 23.4 68.928 23.64C68.168 23.88 67.304 24 66.336 24H60.132V6.768H65.748ZM77.8835 6.288V24H75.5315V6.288H77.8835ZM86.9017 11.616C87.7977 11.616 88.6057 11.764 89.3257 12.06C90.0537 12.348 90.6697 12.768 91.1737 13.32C91.6857 13.864 92.0777 14.524 92.3497 15.3C92.6217 16.068 92.7577 16.932 92.7577 17.892C92.7577 18.852 92.6217 19.72 92.3497 20.496C92.0777 21.272 91.6857 21.932 91.1737 22.476C90.6697 23.02 90.0537 23.44 89.3257 23.736C88.6057 24.024 87.7977 24.168 86.9017 24.168C85.9977 24.168 85.1817 24.024 84.4537 23.736C83.7337 23.44 83.1177 23.02 82.6057 22.476C82.0937 21.932 81.6977 21.272 81.4177 20.496C81.1457 19.72 81.0097 18.852 81.0097 17.892C81.0097 16.932 81.1457 16.068 81.4177 15.3C81.6977 14.524 82.0937 13.864 82.6057 13.32C83.1177 12.768 83.7337 12.348 84.4537 12.06C85.1817 11.764 85.9977 11.616 86.9017 11.616ZM86.9017 22.344C88.0537 22.344 88.9137 21.956 89.4817 21.18C90.0497 20.404 90.3337 19.312 90.3337 17.904C90.3337 16.496 90.0497 15.404 89.4817 14.628C88.9137 13.844 88.0537 13.452 86.9017 13.452C85.7337 13.452 84.8617 13.844 84.2857 14.628C83.7177 15.404 83.4337 16.496 83.4337 17.904C83.4337 19.312 83.7177 20.404 84.2857 21.18C84.8617 21.956 85.7337 22.344 86.9017 22.344ZM100.063 17.916C100.479 17.916 100.843 17.86 101.155 17.748C101.475 17.636 101.739 17.48 101.947 17.28C102.163 17.072 102.323 16.824 102.427 16.536C102.539 16.248 102.595 15.932 102.595 15.588C102.595 14.884 102.379 14.324 101.947 13.908C101.523 13.484 100.895 13.272 100.063 13.272C99.2395 13.272 98.6115 13.484 98.1795 13.908C97.7555 14.324 97.5435 14.884 97.5435 15.588C97.5435 15.932 97.5955 16.248 97.6995 16.536C97.8115 16.816 97.9715 17.06 98.1795 17.268C98.3955 17.468 98.6595 17.628 98.9715 17.748C99.2915 17.86 99.6555 17.916 100.063 17.916ZM103.795 24.636C103.795 24.348 103.715 24.12 103.555 23.952C103.395 23.776 103.175 23.64 102.895 23.544C102.623 23.44 102.303 23.368 101.935 23.328C101.567 23.28 101.179 23.244 100.771 23.22C100.371 23.196 99.9595 23.176 99.5355 23.16C99.1115 23.136 98.7035 23.096 98.3115 23.04C97.8955 23.248 97.5515 23.5 97.2795 23.796C97.0155 24.092 96.8835 24.44 96.8835 24.84C96.8835 25.096 96.9475 25.336 97.0755 25.56C97.2115 25.784 97.4155 25.976 97.6875 26.136C97.9675 26.304 98.3155 26.432 98.7315 26.52C99.1555 26.616 99.6595 26.664 100.243 26.664C100.819 26.664 101.327 26.612 101.767 26.508C102.207 26.412 102.575 26.272 102.871 26.088C103.175 25.912 103.403 25.7 103.555 25.452C103.715 25.204 103.795 24.932 103.795 24.636ZM106.171 12.264V13.14C106.171 13.428 105.991 13.608 105.631 13.68L104.323 13.872C104.435 14.12 104.523 14.384 104.587 14.664C104.651 14.936 104.683 15.224 104.683 15.528C104.683 16.128 104.567 16.672 104.335 17.16C104.103 17.64 103.783 18.052 103.375 18.396C102.967 18.74 102.479 19.004 101.911 19.188C101.351 19.372 100.735 19.464 100.063 19.464C99.5115 19.464 98.9955 19.404 98.5155 19.284C98.2755 19.428 98.0915 19.588 97.9635 19.764C97.8435 19.932 97.7835 20.1 97.7835 20.268C97.7835 20.548 97.8995 20.756 98.1315 20.892C98.3715 21.028 98.6795 21.128 99.0555 21.192C99.4395 21.248 99.8755 21.284 100.363 21.3C100.859 21.316 101.359 21.344 101.863 21.384C102.375 21.416 102.875 21.48 103.363 21.576C103.859 21.664 104.295 21.812 104.671 22.02C105.055 22.22 105.363 22.5 105.595 22.86C105.835 23.212 105.955 23.672 105.955 24.24C105.955 24.768 105.823 25.28 105.559 25.776C105.303 26.272 104.927 26.712 104.431 27.096C103.935 27.48 103.331 27.788 102.619 28.02C101.907 28.252 101.099 28.368 100.195 28.368C99.2915 28.368 98.5035 28.28 97.8315 28.104C97.1675 27.928 96.6115 27.692 96.1635 27.396C95.7235 27.1 95.3915 26.756 95.1675 26.364C94.9515 25.972 94.8435 25.564 94.8435 25.14C94.8435 24.548 95.0275 24.048 95.3955 23.64C95.7635 23.224 96.2715 22.9 96.9195 22.668C96.5675 22.508 96.2875 22.292 96.0795 22.02C95.8715 21.74 95.7675 21.372 95.7675 20.916C95.7675 20.74 95.7995 20.56 95.8635 20.376C95.9275 20.184 96.0235 19.996 96.1515 19.812C96.2875 19.62 96.4515 19.44 96.6435 19.272C96.8435 19.104 97.0715 18.952 97.3275 18.816C96.7275 18.48 96.2555 18.036 95.9115 17.484C95.5675 16.924 95.3955 16.272 95.3955 15.528C95.3955 14.928 95.5115 14.388 95.7435 13.908C95.9755 13.428 96.2955 13.016 96.7035 12.672C97.1195 12.328 97.6115 12.064 98.1795 11.88C98.7555 11.696 99.3835 11.604 100.063 11.604C101.119 11.604 102.027 11.824 102.787 12.264H106.171ZM113.036 17.916C113.452 17.916 113.816 17.86 114.128 17.748C114.448 17.636 114.712 17.48 114.92 17.28C115.136 17.072 115.296 16.824 115.4 16.536C115.512 16.248 115.568 15.932 115.568 15.588C115.568 14.884 115.352 14.324 114.92 13.908C114.496 13.484 113.868 13.272 113.036 13.272C112.212 13.272 111.584 13.484 111.152 13.908C110.728 14.324 110.516 14.884 110.516 15.588C110.516 15.932 110.568 16.248 110.672 16.536C110.784 16.816 110.944 17.06 111.152 17.268C111.368 17.468 111.632 17.628 111.944 17.748C112.264 17.86 112.628 17.916 113.036 17.916ZM116.768 24.636C116.768 24.348 116.688 24.12 116.528 23.952C116.368 23.776 116.148 23.64 115.868 23.544C115.596 23.44 115.276 23.368 114.908 23.328C114.54 23.28 114.152 23.244 113.744 23.22C113.344 23.196 112.932 23.176 112.508 23.16C112.084 23.136 111.676 23.096 111.284 23.04C110.868 23.248 110.524 23.5 110.252 23.796C109.988 24.092 109.856 24.44 109.856 24.84C109.856 25.096 109.92 25.336 110.048 25.56C110.184 25.784 110.388 25.976 110.66 26.136C110.94 26.304 111.288 26.432 111.704 26.52C112.128 26.616 112.632 26.664 113.216 26.664C113.792 26.664 114.3 26.612 114.74 26.508C115.18 26.412 115.548 26.272 115.844 26.088C116.148 25.912 116.376 25.7 116.528 25.452C116.688 25.204 116.768 24.932 116.768 24.636ZM119.144 12.264V13.14C119.144 13.428 118.964 13.608 118.604 13.68L117.296 13.872C117.408 14.12 117.496 14.384 117.56 14.664C117.624 14.936 117.656 15.224 117.656 15.528C117.656 16.128 117.54 16.672 117.308 17.16C117.076 17.64 116.756 18.052 116.348 18.396C115.94 18.74 115.452 19.004 114.884 19.188C114.324 19.372 113.708 19.464 113.036 19.464C112.484 19.464 111.968 19.404 111.488 19.284C111.248 19.428 111.064 19.588 110.936 19.764C110.816 19.932 110.756 20.1 110.756 20.268C110.756 20.548 110.872 20.756 111.104 20.892C111.344 21.028 111.652 21.128 112.028 21.192C112.412 21.248 112.848 21.284 113.336 21.3C113.832 21.316 114.332 21.344 114.836 21.384C115.348 21.416 115.848 21.48 116.336 21.576C116.832 21.664 117.268 21.812 117.644 22.02C118.028 22.22 118.336 22.5 118.568 22.86C118.808 23.212 118.928 23.672 118.928 24.24C118.928 24.768 118.796 25.28 118.532 25.776C118.276 26.272 117.9 26.712 117.404 27.096C116.908 27.48 116.304 27.788 115.592 28.02C114.88 28.252 114.072 28.368 113.168 28.368C112.264 28.368 111.476 28.28 110.804 28.104C110.14 27.928 109.584 27.692 109.136 27.396C108.696 27.1 108.364 26.756 108.14 26.364C107.924 25.972 107.816 25.564 107.816 25.14C107.816 24.548 108 24.048 108.368 23.64C108.736 23.224 109.244 22.9 109.892 22.668C109.54 22.508 109.26 22.292 109.052 22.02C108.844 21.74 108.74 21.372 108.74 20.916C108.74 20.74 108.772 20.56 108.836 20.376C108.9 20.184 108.996 19.996 109.124 19.812C109.26 19.62 109.424 19.44 109.616 19.272C109.816 19.104 110.044 18.952 110.3 18.816C109.7 18.48 109.228 18.036 108.884 17.484C108.54 16.924 108.368 16.272 108.368 15.528C108.368 14.928 108.484 14.388 108.716 13.908C108.948 13.428 109.268 13.016 109.676 12.672C110.092 12.328 110.584 12.064 111.152 11.88C111.728 11.696 112.356 11.604 113.036 11.604C114.092 11.604 115 11.824 115.76 12.264H119.144ZM121.387 22.596C121.387 22.38 121.427 22.176 121.507 21.984C121.587 21.792 121.695 21.624 121.831 21.48C121.975 21.336 122.143 21.224 122.335 21.144C122.527 21.056 122.735 21.012 122.959 21.012C123.175 21.012 123.379 21.056 123.571 21.144C123.763 21.224 123.931 21.336 124.075 21.48C124.219 21.624 124.331 21.792 124.411 21.984C124.499 22.176 124.543 22.38 124.543 22.596C124.543 22.82 124.499 23.028 124.411 23.22C124.331 23.412 124.219 23.58 124.075 23.724C123.931 23.868 123.763 23.98 123.571 24.06C123.379 24.14 123.175 24.18 122.959 24.18C122.735 24.18 122.527 24.14 122.335 24.06C122.143 23.98 121.975 23.868 121.831 23.724C121.695 23.58 121.587 23.412 121.507 23.22C121.427 23.028 121.387 22.82 121.387 22.596ZM138.487 8.904H133.015V24H130.471V8.904H124.975V6.768H138.487V8.904ZM146.135 16.548C146.135 16.084 146.067 15.656 145.931 15.264C145.803 14.872 145.611 14.532 145.355 14.244C145.099 13.956 144.787 13.732 144.419 13.572C144.051 13.412 143.627 13.332 143.147 13.332C142.163 13.332 141.387 13.616 140.819 14.184C140.259 14.752 139.903 15.54 139.751 16.548H146.135ZM148.067 22.26C147.779 22.596 147.447 22.888 147.071 23.136C146.695 23.376 146.295 23.572 145.871 23.724C145.447 23.876 145.007 23.988 144.551 24.06C144.103 24.132 143.659 24.168 143.219 24.168C142.379 24.168 141.599 24.028 140.879 23.748C140.167 23.46 139.547 23.044 139.019 22.5C138.499 21.948 138.091 21.268 137.795 20.46C137.507 19.644 137.363 18.708 137.363 17.652C137.363 16.804 137.495 16.016 137.759 15.288C138.023 14.552 138.399 13.912 138.887 13.368C139.383 12.824 139.987 12.396 140.699 12.084C141.411 11.772 142.211 11.616 143.099 11.616C143.843 11.616 144.527 11.74 145.151 11.988C145.783 12.228 146.327 12.58 146.783 13.044C147.239 13.508 147.595 14.08 147.851 14.76C148.115 15.44 148.247 16.216 148.247 17.088C148.247 17.448 148.207 17.692 148.127 17.82C148.047 17.94 147.899 18 147.683 18H139.691C139.715 18.728 139.819 19.364 140.003 19.908C140.187 20.444 140.439 20.892 140.759 21.252C141.087 21.612 141.475 21.88 141.923 22.056C142.371 22.232 142.871 22.32 143.423 22.32C143.943 22.32 144.391 22.26 144.767 22.14C145.151 22.02 145.479 21.892 145.751 21.756C146.031 21.612 146.263 21.48 146.447 21.36C146.639 21.24 146.807 21.18 146.951 21.18C147.143 21.18 147.291 21.252 147.395 21.396L148.067 22.26ZM159.786 14.088C159.714 14.176 159.642 14.248 159.57 14.304C159.506 14.352 159.41 14.376 159.282 14.376C159.154 14.376 159.018 14.328 158.874 14.232C158.738 14.128 158.562 14.02 158.346 13.908C158.138 13.788 157.882 13.68 157.578 13.584C157.282 13.48 156.914 13.428 156.474 13.428C155.898 13.428 155.39 13.532 154.95 13.74C154.51 13.948 154.142 14.244 153.846 14.628C153.558 15.012 153.338 15.48 153.186 16.032C153.034 16.584 152.958 17.204 152.958 17.892C152.958 18.604 153.038 19.24 153.198 19.8C153.358 20.352 153.586 20.82 153.882 21.204C154.178 21.58 154.538 21.868 154.962 22.068C155.386 22.26 155.858 22.356 156.378 22.356C156.882 22.356 157.298 22.296 157.626 22.176C157.954 22.048 158.226 21.912 158.442 21.768C158.658 21.624 158.838 21.492 158.982 21.372C159.126 21.244 159.274 21.18 159.426 21.18C159.618 21.18 159.766 21.252 159.87 21.396L160.542 22.26C160.262 22.604 159.946 22.896 159.594 23.136C159.25 23.376 158.882 23.572 158.49 23.724C158.098 23.876 157.686 23.988 157.254 24.06C156.83 24.132 156.398 24.168 155.958 24.168C155.198 24.168 154.486 24.028 153.822 23.748C153.166 23.468 152.594 23.06 152.106 22.524C151.626 21.988 151.246 21.332 150.966 20.556C150.686 19.772 150.546 18.884 150.546 17.892C150.546 16.988 150.67 16.152 150.918 15.384C151.174 14.616 151.546 13.956 152.034 13.404C152.53 12.844 153.138 12.408 153.858 12.096C154.578 11.776 155.402 11.616 156.33 11.616C157.202 11.616 157.97 11.756 158.634 12.036C159.298 12.316 159.89 12.712 160.41 13.224L159.786 14.088ZM165.546 13.356C166.058 12.836 166.622 12.416 167.238 12.096C167.862 11.776 168.578 11.616 169.386 11.616C170.058 11.616 170.646 11.728 171.15 11.952C171.662 12.176 172.09 12.492 172.434 12.9C172.778 13.3 173.038 13.784 173.214 14.352C173.39 14.92 173.478 15.548 173.478 16.236V24H171.126V16.236C171.126 15.364 170.926 14.688 170.526 14.208C170.126 13.72 169.514 13.476 168.69 13.476C168.09 13.476 167.526 13.62 166.998 13.908C166.478 14.188 165.994 14.572 165.546 15.06V24H163.206V6.288H165.546V13.356Z" fill="white"/>
</svg>
